<?xml version="1.0" encoding="UTF-8" standalone="no"?>
<svg version="1.1" xmlns="http://www.w3.org/2000/svg" xmlns:svg="http://www.w3.org/2000/svg" width="15" height="16" viewBox="0 0 15 16">
	<g fill="#FFF">
		<path d="M7.5 16C7.40201 16 7.30402 15.9754 7.23053 15.9262L0.812156 12.2092C0.640673 12.1108 0.542683 11.9138 0.542683 11.7169V4.28308C0.542683 4.08615 0.640673 3.88923 0.812156 3.79077L7.23053 0.0738462C7.40201 -0.0246154 7.62249 -0.0246154 7.79397 0.0738462L14.2123 3.79077C14.3838 3.88923 14.4818 4.08615 14.4818 4.28308V11.7169C14.4818 11.9138 14.3838 12.1108 14.2123 12.2092L7.76948 15.9262C7.69598 15.9754 7.59799 16 7.5 16ZM1.64507 11.3969L7.5 14.7938L13.3549 11.3969V4.60308L7.5 1.20615L1.64507 4.60308V11.3969Z"/>
		<path d="M7.50001 16.0002C7.18154 16.0002 6.93657 15.7541 6.93657 15.4341V8.00024C6.93657 7.68024 7.18154 7.43408 7.50001 7.43408C7.81848 7.43408 8.06346 7.68024 8.06346 8.00024V15.4341C8.06346 15.7541 7.81848 16.0002 7.50001 16.0002Z"/>
		<path d="M7.50001 8.56618C7.40202 8.56618 7.30403 8.54157 7.23054 8.49234L0.812161 4.7508C0.542687 4.60311 0.444697 4.25849 0.61618 3.98772C0.763166 3.71695 1.10613 3.61849 1.37561 3.7908L7.79398 7.50772C8.06346 7.65541 8.16145 8.00003 7.98996 8.2708C7.86747 8.46772 7.69599 8.56618 7.50001 8.56618Z"/>
		<path d="M7.5 8.56627C7.30402 8.56627 7.13254 8.46781 7.01005 8.29551C6.86306 8.02474 6.93656 7.68012 7.20603 7.53243L13.6244 3.81551C13.8939 3.66781 14.2368 3.74166 14.3838 4.01243C14.5308 4.2832 14.4573 4.62781 14.1878 4.77551L7.76948 8.49243C7.69598 8.54166 7.59799 8.56627 7.5 8.56627Z"/>
		<path d="M10.7092 6.69538C10.6112 6.69538 10.5132 6.67076 10.4397 6.62153L4.02134 2.90461C3.75187 2.75692 3.65388 2.4123 3.82536 2.14153C3.97235 1.87076 4.31532 1.7723 4.58479 1.94461L10.9787 5.66153C11.2481 5.80922 11.3461 6.15384 11.1746 6.42461C11.0767 6.59692 10.9052 6.69538 10.7092 6.69538Z"/>
	</g>
</svg>