<?xml version="1.0" encoding="UTF-8" standalone="no"?>
<svg xmlns="http://www.w3.org/2000/svg" xmlns:svg="http://www.w3.org/2000/svg" width="16" height="16" viewBox="0 0 16 16">
    <path fill="#FFF" fill-rule="evenodd" clip-rule="evenodd" d="M0.167903 0.168391C0.40219 -0.065896 0.782044 -0.065896 1.01633 0.168391L15.8311 14.9832C16.0654 15.2175 16.0654 15.5973 15.8311 15.8316C15.5969 16.0659 15.217 16.0659 14.9827 15.8316L0.167903 1.01682C-0.0663842 0.782532 -0.0663842 0.402678 0.167903 0.168391Z"/>
    <path fill="#FFF" fill-rule="evenodd" clip-rule="evenodd" d="M15.8311 0.168391C16.0654 0.402678 16.0654 0.782532 15.8311 1.01682L1.01633 15.8316C0.782044 16.0659 0.40219 16.0659 0.167903 15.8316C-0.0663842 15.5973 -0.0663842 15.2175 0.167903 14.9832L14.9827 0.168391C15.217 -0.065896 15.5969 -0.065896 15.8311 0.168391Z"/>
</svg>