<?xml version="1.0" encoding="UTF-8" standalone="no"?>
<svg version="1.1" xmlns="http://www.w3.org/2000/svg" xmlns:svg="http://www.w3.org/2000/svg" width="16" height="12" viewBox="0 0 16 12">
	<g fill="#FFF">
		<path d="M3.96779 3.2198C3.65765 3.21794 3.355 3.12429 3.09803 2.95066C2.84106 2.77704 2.64128 2.53121 2.52388 2.24419C2.40648 1.95718 2.37673 1.64183 2.43837 1.33793C2.50002 1.03402 2.6503 0.755179 2.87026 0.536569C3.09022 0.31796 3.37001 0.169376 3.67433 0.109562C3.97866 0.0497473 4.29388 0.0813812 4.58024 0.200473C4.86661 0.319565 5.11128 0.52078 5.2834 0.778737C5.45552 1.03669 5.54737 1.33984 5.54738 1.64993C5.54738 1.85688 5.50646 2.06179 5.42696 2.25288C5.34746 2.44396 5.23096 2.61744 5.08416 2.76334C4.93736 2.90924 4.76315 3.02468 4.57156 3.10302C4.37997 3.18135 4.17478 3.22104 3.96779 3.2198ZM3.96779 1.21193C3.88142 1.21317 3.79735 1.23991 3.72614 1.28878C3.65493 1.33765 3.59976 1.40648 3.56757 1.48662C3.53537 1.56675 3.52759 1.65461 3.54519 1.73916C3.5628 1.8237 3.60501 1.90116 3.66652 1.96179C3.72802 2.02242 3.80609 2.06351 3.89089 2.07991C3.97569 2.09631 4.06345 2.08727 4.14313 2.05395C4.22282 2.02062 4.29087 1.96448 4.33873 1.8926C4.3866 1.82071 4.41214 1.73628 4.41215 1.64993C4.4109 1.5332 4.36344 1.42173 4.28015 1.33993C4.19686 1.25813 4.08454 1.21266 3.96779 1.2135V1.21193Z"/>
		<path d="M12.0322 7.56941C11.722 7.56755 11.4194 7.4739 11.1624 7.30027C10.9055 7.12665 10.7057 6.88082 10.5883 6.5938C10.4709 6.30679 10.4411 5.99144 10.5028 5.68753C10.5644 5.38363 10.7147 5.10479 10.9347 4.88618C11.1546 4.66757 11.4344 4.51899 11.7387 4.45917C12.0431 4.39936 12.3583 4.43099 12.6446 4.55008C12.931 4.66917 13.1757 4.87039 13.3478 5.12835C13.5199 5.3863 13.6118 5.68945 13.6118 5.99954C13.6118 6.20649 13.5709 6.4114 13.4914 6.60248C13.4119 6.79357 13.2954 6.96705 13.1486 7.11295C13.0017 7.25885 12.8275 7.37429 12.636 7.45263C12.4444 7.53096 12.2392 7.57065 12.0322 7.56941ZM12.0322 5.56154C11.9459 5.56309 11.862 5.59008 11.791 5.63914C11.72 5.6882 11.665 5.75713 11.6331 5.83729C11.6011 5.91745 11.5936 6.00526 11.6114 6.08969C11.6291 6.17413 11.6715 6.25144 11.733 6.31191C11.7946 6.37238 11.8727 6.41333 11.9574 6.4296C12.0422 6.44587 12.1298 6.43675 12.2094 6.40339C12.289 6.37002 12.357 6.31389 12.4048 6.24204C12.4526 6.17019 12.4781 6.08583 12.4781 5.99954C12.4777 5.94147 12.4658 5.88406 12.4432 5.83059C12.4205 5.77713 12.3875 5.72866 12.3461 5.68796C12.3047 5.64727 12.2556 5.61516 12.2018 5.59346C12.1479 5.57177 12.0903 5.56092 12.0322 5.56154Z"/>
		<path d="M7.09558 11.921C6.78537 11.9194 6.48257 11.826 6.22539 11.6526C5.96821 11.4792 5.76818 11.2334 5.65055 10.9465C5.53291 10.6595 5.50293 10.3441 5.5644 10.0401C5.62587 9.73605 5.77603 9.45706 5.99593 9.23829C6.21583 9.01953 6.49562 8.87079 6.79998 8.81085C7.10435 8.75091 7.41965 8.78245 7.70611 8.9015C7.99256 9.02054 8.23733 9.22176 8.40951 9.47975C8.5817 9.73774 8.67359 10.041 8.6736 10.3511C8.6736 10.5579 8.63273 10.7627 8.55333 10.9537C8.47393 11.1447 8.35757 11.3181 8.21093 11.464C8.0643 11.6098 7.89028 11.7253 7.69887 11.8037C7.50746 11.8822 7.30244 11.922 7.09558 11.921ZM7.09558 9.91311C7.00945 9.91404 6.92553 9.94043 6.85437 9.98894C6.78321 10.0375 6.72799 10.1059 6.69568 10.1858C6.66336 10.2656 6.65538 10.3532 6.67275 10.4375C6.69013 10.5219 6.73207 10.5992 6.7933 10.6598C6.85453 10.7203 6.93231 10.7614 7.01685 10.7779C7.10139 10.7944 7.18892 10.7854 7.2684 10.7523C7.34789 10.7191 7.41579 10.6632 7.46355 10.5915C7.51131 10.5198 7.53679 10.4357 7.5368 10.3495C7.53556 10.2334 7.48852 10.1224 7.40591 10.0406C7.3233 9.95893 7.21179 9.91311 7.09558 9.91311Z"/>
		<path d="M0.566826 1.08398C0.421448 1.09163 0.284546 1.15477 0.184347 1.26038C0.0841478 1.36599 0.0282898 1.50602 0.0282898 1.6516C0.0282898 1.79718 0.0841478 1.93721 0.184347 2.04282C0.284546 2.14843 0.421448 2.21157 0.566826 2.21921H3.18272V1.08398H0.566826Z"/>
		<path d="M16 1.65043C16.0002 1.57586 15.9857 1.50199 15.9573 1.43303C15.9289 1.36408 15.8872 1.30141 15.8345 1.24861C15.7819 1.19581 15.7193 1.15391 15.6505 1.12533C15.5816 1.09674 15.5078 1.08203 15.4332 1.08203H4.89108V2.21726H15.4332C15.5835 2.21726 15.7277 2.15754 15.834 2.05124C15.9403 1.94494 16 1.80076 16 1.65043Z"/>
		<path d="M16 6.00043C16.0002 5.92593 15.9857 5.85213 15.9573 5.78327C15.9289 5.7144 15.8871 5.65183 15.8345 5.59915C15.7818 5.54648 15.7192 5.50473 15.6503 5.47632C15.5815 5.44791 15.5077 5.43339 15.4332 5.4336H12.7969V6.56726H15.4332C15.5835 6.56726 15.7277 6.50754 15.834 6.40124C15.9403 6.29494 16 6.15076 16 6.00043Z"/>
		<path d="M0.56683 5.43359C0.416497 5.43359 0.272322 5.49331 0.166021 5.59961C0.0597195 5.70592 0 5.85009 0 6.00042C0 6.15076 0.0597195 6.29493 0.166021 6.40123C0.272322 6.50754 0.416497 6.56726 0.56683 6.56726H11.0289V5.43359H0.56683Z"/>
		<path d="M0 10.3481C0.000829863 10.4979 0.0609155 10.6412 0.167127 10.7469C0.273338 10.8525 0.41704 10.9118 0.56683 10.9118H6.26026V9.78125H0.56683C0.416497 9.78125 0.272322 9.84097 0.166021 9.94727C0.0597195 10.0536 0 10.1977 0 10.3481H0Z"/>
		<path d="M15.4332 10.913C15.5835 10.913 15.7277 10.8532 15.834 10.7469C15.9403 10.6406 16 10.4965 16 10.3461C16 10.1958 15.9403 10.0516 15.834 9.94532C15.7277 9.83902 15.5835 9.7793 15.4332 9.7793H7.92776V10.913H15.4332Z"/>
	</g>
</svg>