<?xml version="1.0" encoding="UTF-8" standalone="no"?>
<svg version="1.1" xmlns="http://www.w3.org/2000/svg" xmlns:svg="http://www.w3.org/2000/svg" width="245" height="31" viewBox="0 0 245 31">
	<path fill="#FFF" d="M232.665 27.1299C233.173 27.1299 233.576 27.3792 233.694 27.7334H233.954C233.85 27.143 233.316 26.7232 232.665 26.7232C231.909 26.7232 231.349 27.3005 231.349 28.0482C231.349 28.8091 231.922 29.3733 232.665 29.3733C233.316 29.3733 233.837 28.9535 233.954 28.3631H233.694C233.576 28.7304 233.173 28.9666 232.665 28.9666C232.052 28.9666 231.597 28.573 231.597 28.0482C231.61 27.5366 232.065 27.1299 232.665 27.1299ZM232.652 29.9636C231.492 29.9636 230.594 29.1371 230.594 28.0482C230.594 26.9594 231.479 26.1329 232.652 26.1329C233.811 26.1329 234.697 26.9594 234.697 28.0482C234.71 29.1502 233.824 29.9636 232.652 29.9636ZM232.652 25.7524C231.349 25.7524 230.372 26.7495 230.372 28.0482C230.372 29.3601 231.362 30.3441 232.652 30.3441C233.954 30.3441 234.931 29.347 234.931 28.0482C234.944 26.7495 233.954 25.7524 232.652 25.7524ZM230.828 13.5781H226.399V9.66864H230.828C231.896 9.66864 232.73 10.6263 232.73 11.6234C232.73 12.5417 231.883 13.5781 230.828 13.5781ZM233.603 0.734659H214.806V30.2522H226.386V19.8096H233.603C240.532 19.8096 245 15.5328 245 10.2459C245 5.05078 240.532 0.734659 233.603 0.734659ZM199.827 30.2522H211.407V0.734659H199.827V30.2522ZM184.756 11.4003H177.905V0.734659H166.325V30.2522H177.905V19.8883H184.756V30.2522H196.336V0.734659H184.756V11.4003ZM151.15 10.3639C148.297 9.77359 146.057 9.18324 146.057 7.77952C146.057 6.63817 147.555 6.08718 149.652 6.08718C151.228 6.08718 153.651 6.71689 154.055 9.52433H162.847C162.847 4.06686 157.246 0 149.587 0C140.508 0 135.78 5.2738 135.78 10.259C135.78 21.738 153.69 18.8912 153.69 22.5777C153.69 23.7584 151.788 24.27 149.691 24.27C148.115 24.27 144.819 23.6796 144.416 20.8722H135.298C135.298 27.2611 142.006 30.9869 149.808 30.9869C160.216 30.9869 164.019 25.9361 164.019 20.4393C164.006 13.4338 156.425 11.5446 151.15 10.3639ZM107.006 30.2522H133.5V21.3576H118.573V18.3271H125.828V12.686H118.573V9.66864H133.487V0.734659H107.006V30.2522ZM105.404 0.734659H93.9021L87.7149 10.587V0.734659H76.1742V30.2522H87.7149V24.493L89.252 22.3546L93.7198 30.2522H105.703L96.5073 13.7224L105.404 0.734659ZM54.265 19.9932L56.7529 12.1744L59.3971 19.9932H54.265ZM52.1678 0.734659L41.2914 30.2522H50.9304L52.1809 26.4084H61.5594L62.8098 30.2522H74.8325L63.7998 0.734659H52.1678ZM19.786 13.683L16.1258 0.734659H0V30.2522H9.01377V11.4397L14.6539 30.2522H23.4853L28.4351 11.4397V30.2522H40.0149V0.734659H23.4853L19.786 13.683Z"/>
</svg>