<?xml version="1.0" encoding="UTF-8" standalone="no"?>
<svg xmlns="http://www.w3.org/2000/svg" xmlns:svg="http://www.w3.org/2000/svg" width="64" height="64" viewBox="0 0 57 58">
    <path fill="#FFF" d="M44.2 15.2L53.4 4.10002C54.1 3.20002 54 1.90002 53.1 1.10002C52.2 0.300016 50.9 0.500016 50.1 1.40002L40.4 13.1C36.9 11.7 32.9 10.7 28.3 10.7C9.3 10.7 0.600005 28 0.300005 28.7C-0.199995 29.8 0.200005 31 1.30001 31.5C2.40001 32 3.60001 31.6 4.10001 30.5C4.40001 29.9 12 14.9 28.3 14.9C31.8 14.9 34.9 15.6 37.6 16.6L35.4 19.2C33.3 18 31 17.3 28.4 17.3C20.8 17.3 14.6 23.5 14.6 31.1C14.6 34.6 15.9 37.7 18 40.2L6.60001 53.9C5.90001 54.8 6.00001 56.1 6.90001 56.9C7.30001 57.2 7.8 57.4 8.3 57.4C8.90001 57.4 9.5 57.1 9.9 56.6L21.2 42.9C23.3 44.2 25.7 44.9 28.4 44.9C36 44.9 42.2 38.7 42.2 31.1C42.2 27.6 40.9 24.4 38.7 21.9L41.5 18.5C49 23 52.5 30 52.7 30.5C53.1 31.3 53.8 31.7 54.6 31.7C54.9 31.7 55.2 31.6 55.5 31.5C56.6 31 57 29.7 56.5 28.7C56.3 28.2 52.4 20.4 44.2 15.2ZM20.7 36.9C19.5 35.3 18.8 33.3 18.8 31.2C18.8 25.9 23.1 21.6 28.3 21.6C29.8 21.6 31.3 22 32.5 22.6L20.7 36.9ZM28.4 40.8C26.8 40.8 25.3 40.4 24 39.7L35.9 25.3C37.2 26.9 37.9 29 37.9 31.2C37.9 36.4 33.6 40.8 28.4 40.8Z"/>
</svg>