<?xml version="1.0" encoding="UTF-8" standalone="no"?>
<svg version="1.1" xmlns="http://www.w3.org/2000/svg" xmlns:svg="http://www.w3.org/2000/svg" width="46" height="46" viewBox="0 0 46 46">
	<path fill="#FFF" d="M23.4749 0.0498047C11.0624 0.0498047 0.983398 10.1506 0.983398 22.5899C0.983398 35.0293 11.0624 45.13 23.4749 45.13C35.8875 45.13 45.9665 35.0293 45.9665 22.5899C45.9665 10.1506 35.8378 0.0498047 23.4749 0.0498047ZM36.1357 28.0632C36.1357 32.0936 32.9581 35.2781 28.9365 35.2781H17.7155C13.6939 35.2781 10.5162 32.0936 10.5162 28.0632V16.7683C10.5162 12.738 13.6939 9.55347 17.7155 9.55347H28.9365C32.9581 9.55347 36.1357 12.738 36.1357 16.7683V28.0632Z"/>
	<path fill="#FFF" d="M30.0786 14.48C29.2345 14.48 28.6387 15.0771 28.6387 15.9229C28.6387 16.7688 29.2345 17.3659 30.0786 17.3659C30.9226 17.3659 31.5184 16.7688 31.5184 15.9229C31.5184 15.0771 30.9723 14.48 30.0786 14.48Z"/>
	<path fill="#FFF" d="M23.4753 16.52C19.9998 16.52 17.418 19.1074 17.418 22.5904C17.418 26.0734 19.9998 28.6608 23.4753 28.6608C26.9508 28.6608 29.5326 26.0734 29.5326 22.5904C29.5326 19.1074 26.9012 16.52 23.4753 16.52ZM23.4753 26.6208C21.1914 26.6208 19.4536 24.8793 19.4536 22.5904C19.4536 20.3016 21.1914 18.5601 23.4753 18.5601C25.7592 18.5601 27.497 20.3016 27.497 22.5904C27.497 24.8793 25.7592 26.6208 23.4753 26.6208Z"/>
</svg>