<?xml version="1.0" encoding="UTF-8" standalone="no"?>
<svg version="1.1" xmlns="http://www.w3.org/2000/svg" xmlns:svg="http://www.w3.org/2000/svg" width="14" height="16" viewBox="0 0 14 16">
	<g fill="#FFF">
		<path d="M1.12 10.7204C0.880003 10.7204 0.66667 10.5871 0.560003 10.3738C-0.53333 7.89375 3.05177e-06 4.93375 1.92 3.01375C3.17334 1.76042 4.8 1.09375 6.56 1.09375C8.32 1.09375 9.97334 1.76042 11.2 3.01375C11.44 3.25375 11.44 3.62708 11.2 3.86708C10.96 4.10708 10.5867 4.10708 10.3467 3.86708C9.33334 2.85375 8 2.29375 6.56 2.29375C5.12 2.29375 3.78667 2.85375 2.77334 3.86708C1.22667 5.44042 0.773336 7.84042 1.68 9.86708C1.81334 10.1604 1.68 10.5337 1.38667 10.6671C1.30667 10.6937 1.2 10.7204 1.12 10.7204Z"/>
		<path d="M8.10667 4.93434C7.81334 4.93434 7.54668 4.721 7.52001 4.42767C7.46668 4.10767 7.68001 3.78767 8.00001 3.73434L10.5867 3.281L10.1333 0.721003C10.08 0.401003 10.2933 0.0810032 10.64 0.0276698C10.96 -0.0256635 11.28 0.18767 11.3333 0.534337L12 4.26767L8.21334 4.90767C8.18667 4.93434 8.13334 4.93434 8.10667 4.93434Z"/>
		<path d="M7.03997 14.9071C5.35997 14.9071 3.67997 14.2671 2.39997 12.9871C2.15997 12.7471 2.15997 12.3737 2.39997 12.1337C2.63997 11.8937 3.0133 11.8937 3.2533 12.1337C5.3333 14.2137 8.74664 14.2137 10.8266 12.1337C12.4 10.5604 12.8266 8.1604 11.92 6.1604C11.7866 5.86707 11.92 5.49373 12.2133 5.3604C12.5066 5.22707 12.88 5.3604 13.0133 5.65373C14.1333 8.13373 13.6 11.0671 11.68 12.9871C10.4 14.2671 8.71997 14.9071 7.03997 14.9071Z"/>
		<path d="M2.85331 16.0007C2.55998 16.0007 2.29331 15.7874 2.26664 15.4941L1.59998 11.7341L5.38664 11.0941C5.70664 11.0407 6.02664 11.2541 6.07998 11.6007C6.13331 11.9207 5.91998 12.2407 5.57331 12.2941L2.98664 12.7474L3.43998 15.3341C3.49331 15.6541 3.27998 15.9741 2.93331 16.0274C2.93331 16.0007 2.87998 16.0007 2.85331 16.0007Z"/>
	</g>
</svg>