<?xml version="1.0" encoding="UTF-8" standalone="no"?>
<svg version="1.1" xmlns="http://www.w3.org/2000/svg" xmlns:svg="http://www.w3.org/2000/svg" width="64" height="64" viewBox="0 0 57 37">
	<path fill="#FFF" d="M28.5 37C43.9 37 55.8 20.3 56.3 19.6C56.8 18.9 56.8 17.9 56.3 17.1C55.8 16.4 43.9 0 28.5 0C13.1 0 0.899994 16.4 0.399994 17.1C-0.100006 17.8 -0.100006 18.8 0.399994 19.6C0.899994 20.3 13.1 37 28.5 37ZM28.5 4.3C39.5 4.3 49 14.8 51.9 18.4C49 22.1 39.5 32.8 28.5 32.8C17.5 32.8 7.89999 22.1 4.89999 18.4C7.89999 14.7 17.5 4.3 28.5 4.3Z"/>
	<path fill="#FFF" d="M28.3 31.4C35.5 31.4 41.3 25.6 41.3 18.4C41.3 11.2 35.5 5.4 28.3 5.4C21.1 5.4 15.3 11.2 15.3 18.4C15.3 25.6 21.2 31.4 28.3 31.4ZM28.3 9.6C33.1 9.6 37.1 13.5 37.1 18.4C37.1 23.3 33.2 27.2 28.3 27.2C23.5 27.2 19.5 23.3 19.5 18.4C19.5 13.5 23.5 9.6 28.3 9.6Z"/>
</svg>