<?xml version="1.0" encoding="UTF-8" standalone="no"?>
<svg version="1.1" xmlns="http://www.w3.org/2000/svg" xmlns:svg="http://www.w3.org/2000/svg" width="46" height="46" viewBox="0 0 46 46">
	<path fill="#FFF" d="M22.8461 0.0498047C10.4335 0.0498047 0.354492 10.1506 0.354492 22.5899C0.354492 35.0293 10.4335 45.13 22.8461 45.13C35.2586 45.13 45.3376 35.0293 45.3376 22.5899C45.3376 10.1506 35.5069 0.0498047 22.8461 0.0498047ZM35.209 19.1069C34.911 19.1069 34.6131 19.1069 34.6131 19.1069C32.0313 19.1069 29.6978 17.6639 28.5558 15.9224C28.5558 21.0972 28.5558 27.1676 28.5558 27.1676C28.5558 31.7951 24.8321 35.5269 20.2146 35.5269C15.5971 35.5269 11.8733 31.7951 11.8733 27.1676C11.8733 22.5402 15.5971 18.8084 20.2146 18.8084C20.5125 18.8084 20.5125 18.8084 20.8104 18.8084V22.8387C20.5125 22.8387 20.5125 22.8387 20.2146 22.8387C17.9307 22.8387 15.895 24.8788 15.895 27.1676C15.895 29.4565 17.9307 31.4965 20.2146 31.4965C22.4985 31.4965 24.5342 29.755 24.5342 27.1676V8.11051H28.5558C28.8537 11.5935 31.7334 14.4795 35.1593 14.7282V19.1069H35.209Z"/>
</svg>