<?xml version="1.0" encoding="UTF-8" standalone="no"?>
<svg version="1.1" xmlns="http://www.w3.org/2000/svg" xmlns:svg="http://www.w3.org/2000/svg" width="46" height="45" viewBox="0 0 46 45">
	<path fill="#FFF" d="M23.1605 0.347656C10.7479 0.347656 0.966797 10.4484 0.966797 22.5892C0.966797 34.73 11.0458 44.8308 23.1605 44.8308C35.2751 44.8308 45.3541 34.73 45.3541 22.5892C45.3541 10.4484 35.573 0.347656 23.1605 0.347656ZM34.3814 18.2106C34.3814 18.5091 34.3814 18.8077 34.3814 18.8077C34.3814 26.0225 28.9199 34.1329 19.0891 34.1329C15.9115 34.1329 13.3297 33.2871 10.7479 31.8441C11.0458 31.8441 11.5919 31.8441 11.8898 31.8441C14.4717 31.8441 16.8052 30.9982 18.4933 29.5553C16.2094 29.5553 14.1738 27.8138 13.578 25.8235C13.8759 25.8235 14.1738 25.8235 14.422 25.8235C15.0178 25.8235 15.2661 25.8235 15.8619 25.5249C13.2801 24.9278 11.5423 22.9375 11.5423 20.3501C12.3863 20.6487 12.9821 20.9472 13.8262 20.9472C12.3863 20.1014 11.5423 18.3598 11.5423 16.6183C11.5423 15.7725 11.8402 14.5783 12.3863 14.0309C14.9682 17.2154 18.9898 19.5043 23.3591 19.5043C23.3591 19.2057 23.3591 18.6584 23.3591 18.3598C23.3591 15.4739 25.643 12.8865 28.8206 12.8865C30.2604 12.8865 31.7003 13.4836 32.8422 14.628C33.9842 14.3295 35.1262 14.0309 36.3178 13.1851C36.0199 14.3295 35.1758 15.4739 34.0339 16.071C35.1758 16.071 36.0695 15.7725 37.2115 15.2251C36.4171 16.5188 35.573 17.6632 34.3814 18.2106Z"/>
</svg>